<?xml version="1.0" standalone="no"?>
<!DOCTYPE svg PUBLIC "-//W3C//DTD SVG 20010904//EN"
 "http://www.w3.org/TR/2001/REC-SVG-20010904/DTD/svg10.dtd">
<svg version="1.0" xmlns="http://www.w3.org/2000/svg"
 width="256.000000pt" height="256.000000pt" viewBox="0 0 256.000000 256.000000"
 preserveAspectRatio="xMidYMid meet">
<metadata>
Created by potrace 1.10, written by Peter Selinger 2001-2011
</metadata>
<g transform="translate(0.000000,256.000000) scale(0.100000,-0.100000)"
fill="#000000" stroke="none">
<path d="M130 2426 c73 -74 136 -133 139 -130 6 6 -228 242 -254 256 -11 5 41
-51 115 -126z"/>
<path d="M667 2431 c-73 -71 -129 -132 -126 -135 3 -3 65 55 139 129 74 74
131 135 126 135 -4 0 -67 -58 -139 -129z"/>
<path d="M1875 2430 c71 -71 134 -130 140 -130 5 0 -49 59 -120 130 -71 72
-134 130 -140 130 -5 0 49 -58 120 -130z"/>
<path d="M2425 2430 c-71 -71 -125 -130 -120 -130 10 0 217 206 244 243 28 37
1 12 -124 -113z"/>
<path d="M357 2273 c-4 -3 -7 -13 -7 -22 1 -14 2 -13 11 2 12 21 57 23 65 2 4
-8 10 -15 15 -15 6 0 5 9 -1 20 -7 14 -21 20 -44 20 -18 0 -36 -3 -39 -7z"/>
<path d="M2122 2268 c-7 -7 -12 -19 -11 -27 0 -11 4 -8 11 7 7 15 20 22 38 22
18 0 31 -7 38 -22 7 -15 11 -18 11 -7 1 22 -19 39 -49 39 -14 0 -31 -5 -38
-12z"/>
<path d="M279 2192 l-35 -37 65 -60 66 -59 -57 59 c-55 58 -57 61 -40 81 9 12
25 26 36 31 10 6 14 13 9 16 -5 3 -25 -11 -44 -31z"/>
<path d="M2046 2193 l-38 -35 22 -22 22 -21 -12 24 c-12 22 -10 27 20 54 17
15 30 30 28 32 -1 2 -20 -12 -42 -32z"/>
<path d="M489 2191 c19 -14 22 -24 17 -45 -4 -18 -3 -25 4 -21 18 11 12 63 -9
75 -31 16 -38 11 -12 -9z"/>
<path d="M2247 2198 c30 -15 35 -46 11 -70 -17 -17 -18 -19 -2 -16 9 1 22 16
27 32 8 25 7 32 -13 48 -12 10 -27 18 -34 17 -6 0 -1 -5 11 -11z"/>
<path d="M757 2140 c-216 -39 -418 -155 -553 -318 -107 -130 -199 -361 -192
-484 l3 -53 18 60 c10 33 30 98 44 145 67 225 221 417 411 514 63 32 44 7 -29
-40 -186 -119 -314 -291 -370 -499 -29 -105 -32 -308 -6 -404 45 -167 102
-265 227 -391 111 -113 199 -169 332 -212 171 -57 451 -48 526 17 38 33 25 58
-81 155 l-89 80 -81 0 c-45 0 -89 5 -97 11 -12 8 -8 10 15 8 60 -3 75 1 91 26
13 19 14 31 6 54 -13 37 -3 48 16 18 52 -77 130 -171 173 -207 245 -207 576
-258 869 -135 165 69 337 231 420 395 70 138 100 302 83 458 -27 249 -155 462
-366 610 -43 30 -76 57 -73 60 11 10 120 -65 191 -130 129 -120 202 -248 254
-446 38 -143 50 -166 51 -91 0 123 -78 329 -174 456 -235 311 -669 435 -1031
294 -64 -25 -75 -26 -98 -15 -13 7 -65 25 -113 40 -98 28 -287 41 -377 24z
m318 -55 c39 -8 98 -25 132 -37 55 -20 66 -21 105 -10 24 7 75 22 113 34 151
44 413 33 537 -22 52 -23 37 -26 -23 -4 -237 85 -621 36 -561 -72 5 -9 49 -52
98 -95 l88 -79 71 -1 c79 0 140 -17 68 -18 -29 -1 -50 -8 -63 -21 -23 -23 -24
-29 -10 -64 17 -45 -7 -28 -55 39 -113 159 -286 281 -470 331 -126 34 -344 28
-458 -12 -44 -16 -64 -11 -26 6 87 39 327 52 454 25z m15 -61 c36 -9 106 -35
155 -59 163 -79 281 -197 360 -360 65 -133 79 -197 79 -350 0 -171 -29 -278
-116 -421 l-31 -52 -51 21 c-28 11 -70 33 -93 49 l-42 28 25 38 c73 106 104
205 104 329 0 144 -37 254 -123 368 -108 143 -275 225 -463 225 -262 0 -495
-179 -564 -433 -28 -104 -24 -247 10 -344 82 -235 305 -393 553 -393 l93 0 44
-46 c25 -25 67 -62 94 -82 l49 -36 -69 -18 c-409 -106 -824 115 -959 512 -137
404 70 844 470 996 39 14 102 32 140 40 86 17 244 11 335 -12z m690 16 c360
-57 625 -332 672 -699 49 -380 -207 -751 -592 -857 -90 -25 -300 -25 -390 0
-80 22 -193 73 -257 117 -56 39 -153 128 -153 141 0 5 -14 23 -30 40 -38 37
-113 191 -136 278 -25 90 -25 300 0 390 20 74 83 213 113 249 20 25 20 25 65
8 25 -10 66 -31 92 -47 l47 -30 -31 -45 c-69 -100 -100 -202 -100 -329 0 -138
35 -245 114 -349 20 -26 36 -51 36 -55 0 -13 128 -102 191 -132 87 -41 156
-53 273 -48 153 7 272 58 379 163 112 110 166 231 174 390 10 183 -48 327
-183 455 -115 109 -243 160 -402 160 l-84 0 -66 61 c-36 34 -78 69 -94 79 -35
21 -33 23 57 44 124 28 201 32 305 16z m-945 -289 c-7 -6 -65 50 -65 63 0 5
16 -5 35 -24 19 -18 32 -36 30 -39z m970 19 c-16 -17 -33 -30 -39 -30 -5 0 5
16 24 35 18 19 36 32 39 30 2 -3 -8 -19 -24 -35z m-729 -1 c77 -29 174 -90
217 -138 44 -49 90 -127 85 -143 -3 -8 -10 -3 -18 12 -19 38 -62 80 -80 80
-20 0 -62 -44 -86 -90 -13 -26 -19 -30 -22 -18 -2 10 13 45 32 78 42 72 43 78
14 115 -21 27 -151 95 -182 95 -8 0 -31 -13 -49 -30 -19 -16 -37 -30 -40 -30
-2 0 -7 14 -11 30 -4 23 -15 35 -41 46 -19 8 -35 17 -35 21 0 13 160 -7 216
-28z m-361 -16 c-66 -26 -172 -101 -215 -151 -221 -259 -151 -642 150 -816 45
-26 56 -36 35 -31 -16 4 -60 27 -97 51 -247 164 -310 497 -144 754 69 106 208
206 291 208 11 1 2 -6 -20 -15z m1218 -25 c107 -58 197 -163 247 -293 20 -51
24 -77 24 -180 -1 -105 -4 -128 -26 -186 -49 -126 -134 -227 -237 -282 -75
-41 -73 -27 4 22 108 70 198 194 229 313 62 242 -53 489 -283 609 -23 11 -41
23 -41 25 0 11 28 1 83 -28z m-1023 7 c0 -3 -11 -22 -24 -43 -14 -20 -38 -71
-55 -112 -90 -227 -78 -498 32 -719 23 -48 43 -88 45 -92 6 -12 -126 10 -175
29 -82 31 -134 65 -190 124 -114 122 -159 293 -118 453 53 203 243 358 448
364 20 1 37 -1 37 -4z m873 -10 c32 -8 81 -27 109 -41 65 -33 164 -132 200
-200 130 -244 32 -544 -218 -665 -63 -31 -99 -41 -153 -46 l-71 -6 45 89 c71
141 89 221 89 399 0 178 -18 259 -88 398 l-44 87 37 0 c20 0 63 -7 94 -15z
m-126 -103 c-15 -14 -27 -21 -27 -15 0 15 41 55 49 48 3 -3 -7 -18 -22 -33z
m-747 -6 c0 -2 -9 -24 -20 -50 -72 -161 -78 -397 -15 -579 21 -61 14 -86 -9
-32 -53 123 -69 342 -35 480 22 93 57 185 70 185 5 0 9 -2 9 -4z m783 -58 c57
-136 69 -363 29 -512 -12 -44 -24 -82 -27 -84 -14 -14 -12 10 7 73 18 58 21
97 22 220 0 135 -3 159 -27 238 -29 93 -30 97 -22 97 3 0 11 -15 18 -32z
m-362 -94 c37 -75 42 -97 47 -174 3 -53 0 -109 -8 -141 -13 -57 -77 -189 -91
-189 -4 0 -27 38 -50 84 -37 75 -42 94 -47 174 -3 55 0 110 8 143 13 57 77
189 91 189 5 0 27 -39 50 -86z m94 -24 c6 -10 -44 -35 -53 -26 -8 8 19 36 34
36 7 0 16 -5 19 -10z m5 -70 c-30 -23 -40 -25 -40 -6 0 20 43 46 55 35 7 -7 1
-17 -15 -29z m-286 -32 c-10 -95 -25 -117 -20 -30 5 67 10 92 22 92 3 0 2 -28
-2 -62z m303 -25 c-17 -17 -51 -10 -45 9 5 15 52 28 57 15 2 -5 -4 -16 -12
-24z m-7 -90 c0 -16 -5 -35 -10 -43 -7 -11 -10 -4 -10 28 0 23 5 42 10 42 6 0
10 -12 10 -27z m-274 -63 c12 -55 3 -64 -22 -25 -10 16 -14 34 -10 50 10 39
21 30 32 -25z m244 -87 c-7 -21 -30 -71 -52 -111 -34 -63 -39 -77 -30 -98 16
-33 85 -81 148 -101 50 -15 54 -15 79 1 15 10 41 40 58 68 34 55 49 49 22 -9
-16 -33 -16 -40 -4 -63 13 -22 23 -26 84 -30 l70 -5 -59 -9 c-190 -28 -409 69
-508 223 -39 63 -35 83 8 33 19 -23 43 -42 53 -42 27 0 67 48 102 123 33 73
49 83 29 20z m-242 -24 c-5 -35 -28 -36 -28 -1 0 16 3 32 7 36 11 11 25 -10
21 -35z m527 -157 c-7 -7 -55 39 -55 52 0 5 13 -3 30 -19 16 -16 28 -31 25
-33z m-788 -20 c-15 -14 -27 -22 -27 -16 0 14 41 57 48 49 3 -3 -6 -18 -21
-33z m958 -150 c-7 -7 -55 39 -55 52 0 5 13 -3 30 -19 16 -16 28 -31 25 -33z
m-1098 11 c-14 -15 -29 -24 -32 -21 -4 3 6 18 21 32 36 33 46 23 11 -11z"/>
<path d="M620 1944 c0 -13 78 -89 85 -83 2 3 -16 25 -40 49 -25 24 -45 40 -45
34z"/>
<path d="M1454 1585 c-17 -13 -16 -13 13 -3 36 13 63 -1 63 -32 0 -12 10 -19
29 -22 17 -2 28 -1 25 4 -3 4 -14 8 -25 8 -10 0 -19 6 -19 13 0 18 -32 47 -51
47 -9 0 -24 -7 -35 -15z"/>
<path d="M1585 1451 c-3 -10 -20 -26 -38 -35 -20 -10 -26 -16 -14 -16 19 0 67
42 67 60 0 16 -8 12 -15 -9z"/>
<path d="M1500 1064 c0 -13 78 -89 85 -83 2 3 -16 25 -40 49 -25 24 -45 40
-45 34z"/>
<path d="M620 623 c-27 -27 -35 -40 -21 -32 22 14 79 79 69 79 -2 0 -24 -21
-48 -47z"/>
<path d="M1900 1904 c-33 -34 -37 -42 -17 -29 23 15 75 75 65 75 -2 0 -24 -21
-48 -46z"/>
<path d="M990 1574 c0 -13 78 -89 85 -83 2 3 -16 25 -40 49 -25 24 -45 40 -45
34z"/>
<path d="M1010 957 c44 -47 44 -47 64 -27 17 17 18 22 7 32 -11 11 -13 10 -7
0 4 -7 2 -20 -5 -28 -11 -13 -18 -9 -58 28 l-46 43 45 -48z"/>
<path d="M1935 620 c21 -22 44 -40 49 -40 6 0 -8 18 -29 40 -21 22 -44 40 -49
40 -6 0 8 -18 29 -40z"/>
<path d="M1283 1294 c-4 -10 5 -26 23 -42 28 -27 28 -27 6 -1 -36 42 -27 65
12 32 21 -18 21 -18 2 5 -23 26 -34 28 -43 6z"/>
<path d="M1228 1259 c6 -9 10 -18 7 -21 -3 -3 4 -13 15 -23 11 -10 20 -14 20
-10 0 4 9 0 20 -10 41 -37 18 -8 -27 35 -26 25 -42 38 -35 29z"/>
<path d="M2300 2015 c0 -6 59 -69 130 -140 72 -71 130 -125 130 -120 0 6 -58
69 -130 140 -71 71 -130 125 -130 120z"/>
<path d="M149 1912 c-153 -160 -163 -176 -21 -37 72 71 132 131 132 132 0 15
-31 -12 -111 -95z"/>
<path d="M13 1145 c6 -106 55 -251 119 -356 162 -263 455 -429 758 -429 110 0
193 14 307 52 l91 30 64 -25 c138 -55 322 -71 479 -41 245 46 465 199 598 416
63 102 112 248 118 353 4 73 3 78 -10 55 -8 -14 -20 -50 -27 -80 -75 -342
-275 -574 -581 -673 -177 -58 -366 -56 -543 4 -97 34 -98 34 -224 -5 -236 -73
-460 -51 -687 67 -60 32 -103 65 -176 137 -131 130 -190 237 -243 440 -37 141
-48 155 -43 55z"/>
<path d="M18 765 c28 -40 232 -242 232 -230 0 6 -57 66 -126 135 -70 69 -118
112 -106 95z"/>
<path d="M2430 665 c-68 -69 -121 -127 -119 -130 3 -2 61 52 129 120 68 68
122 127 119 129 -3 3 -61 -51 -129 -119z"/>
<path d="M279 428 l-36 -37 77 -76 76 -75 39 40 c45 46 36 55 -10 10 l-32 -31
-68 67 -68 67 36 33 c20 19 33 35 29 37 -4 1 -23 -14 -43 -35z"/>
<path d="M2248 430 c12 -5 23 -15 23 -22 2 -24 -3 -43 -14 -50 -9 -6 -8 -8 1
-8 7 0 17 11 23 24 15 31 -4 66 -34 65 l-22 0 23 -9z"/>
<path d="M2090 315 c36 -38 65 -71 66 -72 0 -1 18 16 40 40 l39 42 -38 -35
-37 -34 -68 64 -67 65 65 -70z"/>
<path d="M2310 255 c0 -6 56 -66 125 -135 69 -69 125 -120 125 -115 0 6 -56
66 -125 135 -69 69 -125 120 -125 115z"/>
<path d="M120 122 c-138 -140 -121 -130 35 20 55 53 97 99 94 102 -3 3 -61
-52 -129 -122z"/>
<path d="M540 242 c0 -11 235 -242 246 -242 5 0 -47 56 -116 125 -69 69 -126
125 -127 125 -2 0 -3 -4 -3 -8z"/>
<path d="M1904 137 c-61 -62 -114 -120 -119 -128 -4 -8 48 41 116 108 68 67
121 125 118 127 -3 3 -55 -45 -115 -107z"/>
</g>
</svg>
